Source: 
http://thepiratebay.se/torrent/5654630/Doug_Stanhope_-_Edinburgh_Bootleg_DVDRip

Fixed the aspect ratio to 4:3 (the source was wrongly set to 16:9), a couple seconds of trimming, and encoded to baseline mp4 for all to enjoy on the go.

Maximum compatibility with all devices, please do enjoy this small file of stanhope bile.


Format                                   : MPEG-4
Format profile                           : Base Media
Codec ID                                 : isom
File size                                : 104 MiB
Duration                                 : 47mn 48s
Overall bit rate                         : 303 Kbps
Writing application                      : Lavf54.6.100

Video
ID                                       : 1
Format                                   : AVC
Format/Info                              : Advanced Video Codec
Format profile                           : Baseline@L1.3
Format settings, CABAC                   : No
Format settings, ReFrames                : 2 frames
Codec ID                                 : avc1
Codec ID/Info                            : Advanced Video Coding
Duration                                 : 47mn 48s
Bit rate                                 : 200 Kbps
Width                                    : 320 pixels
Height                                   : 240 pixels
Display aspect ratio                     : 4:3
Frame rate mode                          : Constant
Frame rate                               : 24.914 fps
Color space                              : YUV
Chroma subsampling                       : 4:2:0
Bit depth                                : 8 bits
Scan type                                : Progressive
Bits/(Pixel*Frame)                       : 0.105
Stream size                              : 68.6 MiB (66%)
Language                                 : English

Audio
ID                                       : 2
Format                                   : AAC
Format/Info                              : Advanced Audio Codec
Format profile                           : LC
Codec ID                                 : 40
Duration                                 : 47mn 48s
Bit rate mode                            : Constant
Bit rate                                 : 96.0 Kbps
Channel(s)                               : 2 channels
Channel positions                        : Front: L R
Sampling rate                            : 48.0 KHz
Compression mode                         : Lossy
Stream size                              : 32.8 MiB (32%)
